<mxfile host="app.diagrams.net" modified="2024-04-26T13:39:38.174Z" agent="Mozilla/5.0 (Windows NT 10.0; Win64; x64; rv:125.0) Gecko/20100101 Firefox/125.0" etag="yQMrain0TXNQXx_AkkE5" version="24.3.0" type="google">
  <diagram name="Page-1" id="LcCb9ijOKHj359xjrBZA">
    <mxGraphModel grid="1" page="1" gridSize="10" guides="1" tooltips="1" connect="1" arrows="1" fold="1" pageScale="1" pageWidth="1000" pageHeight="1000" math="0" shadow="0">
      <root>
        <mxCell id="0" />
        <mxCell id="1" parent="0" />
        <mxCell id="GpeRAgoN0T-w5FaHqKzR-71" value="" style="edgeStyle=orthogonalEdgeStyle;rounded=0;orthogonalLoop=1;jettySize=auto;html=1;labelBackgroundColor=none;spacing=2;fontSize=12;" edge="1" parent="1" target="GpeRAgoN0T-w5FaHqKzR-70">
          <mxGeometry relative="1" as="geometry">
            <mxPoint x="530" y="-945" as="sourcePoint" />
          </mxGeometry>
        </mxCell>
        <mxCell id="GpeRAgoN0T-w5FaHqKzR-3" value="is&lt;br&gt;&lt;div&gt;program&lt;/div&gt;&lt;div&gt;using the&lt;/div&gt;&lt;div&gt;terminal&lt;/div&gt;&lt;div&gt;?&lt;br&gt;&lt;/div&gt;" style="strokeWidth=1;html=1;shape=mxgraph.flowchart.decision;fillColor=#ffe6cc;strokeColor=#d79b00;labelBackgroundColor=none;spacing=2;fontSize=10;whiteSpace=wrap;" vertex="1" parent="1">
          <mxGeometry x="480" y="-825" width="100" height="90" as="geometry" />
        </mxCell>
        <mxCell id="GpeRAgoN0T-w5FaHqKzR-75" value="" style="edgeStyle=orthogonalEdgeStyle;rounded=0;orthogonalLoop=1;jettySize=auto;html=1;labelBackgroundColor=none;spacing=2;fontSize=12;" edge="1" parent="1" source="GpeRAgoN0T-w5FaHqKzR-4" target="GpeRAgoN0T-w5FaHqKzR-74">
          <mxGeometry relative="1" as="geometry" />
        </mxCell>
        <mxCell id="GpeRAgoN0T-w5FaHqKzR-4" value="display prompt : $" style="rounded=1;html=1;absoluteArcSize=1;arcSize=14;strokeWidth=1;fillColor=#dae8fc;strokeColor=#6c8ebf;labelBackgroundColor=none;spacing=2;fontSize=12;whiteSpace=wrap;" vertex="1" parent="1">
          <mxGeometry x="465" y="-680" width="130" height="40" as="geometry" />
        </mxCell>
        <mxCell id="GpeRAgoN0T-w5FaHqKzR-10" value="" style="edgeStyle=orthogonalEdgeStyle;rounded=0;orthogonalLoop=1;jettySize=auto;html=1;labelBackgroundColor=none;spacing=2;fontSize=12;" edge="1" parent="1" source="GpeRAgoN0T-w5FaHqKzR-7" target="GpeRAgoN0T-w5FaHqKzR-9">
          <mxGeometry relative="1" as="geometry" />
        </mxCell>
        <mxCell id="GpeRAgoN0T-w5FaHqKzR-7" value="&lt;div&gt;Read input&lt;br&gt;&lt;/div&gt;" style="rounded=1;html=1;absoluteArcSize=1;arcSize=14;strokeWidth=1;fillColor=#dae8fc;strokeColor=#6c8ebf;labelBackgroundColor=none;spacing=2;fontSize=12;whiteSpace=wrap;" vertex="1" parent="1">
          <mxGeometry x="475" y="-510" width="110" height="50" as="geometry" />
        </mxCell>
        <mxCell id="GpeRAgoN0T-w5FaHqKzR-12" value="" style="edgeStyle=orthogonalEdgeStyle;rounded=0;orthogonalLoop=1;jettySize=auto;html=1;labelBackgroundColor=none;spacing=2;fontSize=12;strokeColor=#009900;" edge="1" parent="1" source="GpeRAgoN0T-w5FaHqKzR-9" target="GpeRAgoN0T-w5FaHqKzR-11">
          <mxGeometry relative="1" as="geometry">
            <Array as="points">
              <mxPoint x="850" y="-380" />
            </Array>
          </mxGeometry>
        </mxCell>
        <mxCell id="GpeRAgoN0T-w5FaHqKzR-15" value="yes" style="edgeLabel;html=1;align=center;verticalAlign=middle;resizable=0;points=[];labelBackgroundColor=default;spacing=2;fontSize=12;fontColor=#009900;" vertex="1" connectable="0" parent="GpeRAgoN0T-w5FaHqKzR-12">
          <mxGeometry x="-0.0441" relative="1" as="geometry">
            <mxPoint x="-61" as="offset" />
          </mxGeometry>
        </mxCell>
        <mxCell id="GpeRAgoN0T-w5FaHqKzR-20" value="" style="edgeStyle=orthogonalEdgeStyle;rounded=0;orthogonalLoop=1;jettySize=auto;html=1;labelBackgroundColor=none;spacing=2;fontSize=12;strokeColor=#FF0000;entryX=0.469;entryY=0.026;entryDx=0;entryDy=0;entryPerimeter=0;" edge="1" parent="1" source="GpeRAgoN0T-w5FaHqKzR-9" target="L-O8Y2RSBPuieIQ2Lcut-25">
          <mxGeometry relative="1" as="geometry">
            <mxPoint x="530" y="-300" as="targetPoint" />
          </mxGeometry>
        </mxCell>
        <mxCell id="GpeRAgoN0T-w5FaHqKzR-97" value="no" style="edgeLabel;html=1;align=center;verticalAlign=middle;resizable=0;points=[];strokeColor=#FF0000;fontColor=#FF0000;" vertex="1" connectable="0" parent="GpeRAgoN0T-w5FaHqKzR-20">
          <mxGeometry x="-0.2406" y="-1" relative="1" as="geometry">
            <mxPoint x="1" y="1" as="offset" />
          </mxGeometry>
        </mxCell>
        <mxCell id="GpeRAgoN0T-w5FaHqKzR-9" value="is&lt;br&gt;&lt;div&gt;EOF reached&lt;/div&gt;&lt;div&gt;(Ctrl + D)&lt;br&gt;&lt;/div&gt;?" style="strokeWidth=1;html=1;shape=mxgraph.flowchart.decision;fillColor=#ffe6cc;strokeColor=#d79b00;labelBackgroundColor=none;spacing=2;fontSize=12;whiteSpace=wrap;" vertex="1" parent="1">
          <mxGeometry x="445" y="-420" width="170" height="80" as="geometry" />
        </mxCell>
        <mxCell id="GpeRAgoN0T-w5FaHqKzR-11" value="free memory" style="rounded=1;html=1;absoluteArcSize=1;arcSize=14;strokeWidth=1;fillColor=#dae8fc;strokeColor=#6c8ebf;labelBackgroundColor=none;spacing=2;fontSize=12;whiteSpace=wrap;" vertex="1" parent="1">
          <mxGeometry x="820" y="-400" width="120" height="40" as="geometry" />
        </mxCell>
        <mxCell id="GpeRAgoN0T-w5FaHqKzR-26" value="" style="edgeStyle=orthogonalEdgeStyle;rounded=0;orthogonalLoop=1;jettySize=auto;html=1;labelBackgroundColor=none;spacing=2;fontSize=12;" edge="1" parent="1" source="GpeRAgoN0T-w5FaHqKzR-21" target="GpeRAgoN0T-w5FaHqKzR-25">
          <mxGeometry relative="1" as="geometry" />
        </mxCell>
        <mxCell id="GpeRAgoN0T-w5FaHqKzR-21" value="check builtin commands" style="rounded=1;html=1;absoluteArcSize=1;arcSize=14;strokeWidth=1;fillColor=#dae8fc;strokeColor=#6c8ebf;labelBackgroundColor=none;spacing=2;fontSize=12;whiteSpace=wrap;" vertex="1" parent="1">
          <mxGeometry x="455" y="-173.42" width="150" height="40" as="geometry" />
        </mxCell>
        <mxCell id="GpeRAgoN0T-w5FaHqKzR-35" value="" style="edgeStyle=orthogonalEdgeStyle;rounded=0;orthogonalLoop=1;jettySize=auto;html=1;labelBackgroundColor=none;spacing=2;fontSize=12;strokeColor=#FF0000;" edge="1" parent="1" source="GpeRAgoN0T-w5FaHqKzR-25" target="GpeRAgoN0T-w5FaHqKzR-34">
          <mxGeometry relative="1" as="geometry" />
        </mxCell>
        <mxCell id="GpeRAgoN0T-w5FaHqKzR-36" value="no" style="edgeLabel;html=1;align=center;verticalAlign=middle;resizable=0;points=[];labelBackgroundColor=default;spacing=2;fontSize=12;fontColor=#FF0000;" vertex="1" connectable="0" parent="GpeRAgoN0T-w5FaHqKzR-35">
          <mxGeometry x="-0.1137" y="5" relative="1" as="geometry">
            <mxPoint x="5" y="-6" as="offset" />
          </mxGeometry>
        </mxCell>
        <mxCell id="GpeRAgoN0T-w5FaHqKzR-108" value="" style="edgeStyle=orthogonalEdgeStyle;rounded=0;orthogonalLoop=1;jettySize=auto;html=1;strokeColor=#009900;entryX=1.02;entryY=0.502;entryDx=0;entryDy=0;entryPerimeter=0;" edge="1" parent="1" source="GpeRAgoN0T-w5FaHqKzR-25" target="GpeRAgoN0T-w5FaHqKzR-28">
          <mxGeometry relative="1" as="geometry">
            <mxPoint x="450" y="-53.42" as="targetPoint" />
          </mxGeometry>
        </mxCell>
        <mxCell id="GpeRAgoN0T-w5FaHqKzR-109" value="yes" style="edgeLabel;html=1;align=center;verticalAlign=middle;resizable=0;points=[];fontColor=#009900;" vertex="1" connectable="0" parent="GpeRAgoN0T-w5FaHqKzR-108">
          <mxGeometry x="-0.1608" relative="1" as="geometry">
            <mxPoint y="-1" as="offset" />
          </mxGeometry>
        </mxCell>
        <mxCell id="GpeRAgoN0T-w5FaHqKzR-25" value="is&lt;br&gt;&lt;div&gt;cmd == env&lt;/div&gt;&lt;div&gt;or&lt;/div&gt;&lt;div&gt;printenv&lt;br&gt;&lt;/div&gt;?" style="strokeWidth=1;html=1;shape=mxgraph.flowchart.decision;fillColor=#ffe6cc;strokeColor=#d79b00;labelBackgroundColor=none;spacing=2;fontSize=12;whiteSpace=wrap;" vertex="1" parent="1">
          <mxGeometry x="480" y="-93.42" width="100" height="90" as="geometry" />
        </mxCell>
        <mxCell id="GpeRAgoN0T-w5FaHqKzR-31" style="edgeStyle=orthogonalEdgeStyle;rounded=0;orthogonalLoop=1;jettySize=auto;html=1;labelBackgroundColor=none;spacing=2;fontSize=12;entryX=0;entryY=0.75;entryDx=0;entryDy=0;" edge="1" parent="1" source="GpeRAgoN0T-w5FaHqKzR-28" target="GpeRAgoN0T-w5FaHqKzR-4">
          <mxGeometry relative="1" as="geometry">
            <mxPoint x="400" y="-720" as="targetPoint" />
            <Array as="points">
              <mxPoint x="210" y="-650" />
            </Array>
          </mxGeometry>
        </mxCell>
        <mxCell id="GpeRAgoN0T-w5FaHqKzR-28" value="print environment variables" style="rounded=1;html=1;absoluteArcSize=1;arcSize=14;strokeWidth=1;fillColor=#dae8fc;strokeColor=#6c8ebf;labelBackgroundColor=none;spacing=2;fontSize=12;whiteSpace=wrap;" vertex="1" parent="1">
          <mxGeometry x="170" y="-68.42" width="160" height="40" as="geometry" />
        </mxCell>
        <mxCell id="GpeRAgoN0T-w5FaHqKzR-39" value="" style="edgeStyle=orthogonalEdgeStyle;rounded=0;orthogonalLoop=1;jettySize=auto;html=1;labelBackgroundColor=none;spacing=2;fontSize=12;strokeColor=#009900;exitX=1;exitY=0.5;exitDx=0;exitDy=0;exitPerimeter=0;entryX=0.5;entryY=1;entryDx=0;entryDy=0;" edge="1" parent="1" source="GpeRAgoN0T-w5FaHqKzR-34" target="GpeRAgoN0T-w5FaHqKzR-11">
          <mxGeometry relative="1" as="geometry">
            <mxPoint x="945" y="-340" as="targetPoint" />
            <Array as="points">
              <mxPoint x="880" y="72" />
            </Array>
            <mxPoint x="595" y="51.57999999999993" as="sourcePoint" />
          </mxGeometry>
        </mxCell>
        <mxCell id="GpeRAgoN0T-w5FaHqKzR-40" value="yes&lt;br style=&quot;font-size: 12px;&quot;&gt;" style="edgeLabel;html=1;align=center;verticalAlign=middle;resizable=0;points=[];labelBackgroundColor=default;spacing=2;fontSize=12;fontColor=#009900;" vertex="1" connectable="0" parent="GpeRAgoN0T-w5FaHqKzR-39">
          <mxGeometry x="-0.0833" y="2" relative="1" as="geometry">
            <mxPoint x="-278" y="30" as="offset" />
          </mxGeometry>
        </mxCell>
        <mxCell id="GpeRAgoN0T-w5FaHqKzR-43" value="" style="edgeStyle=orthogonalEdgeStyle;rounded=0;orthogonalLoop=1;jettySize=auto;html=1;labelBackgroundColor=none;spacing=2;fontSize=12;strokeColor=#FF0000;" edge="1" parent="1" source="GpeRAgoN0T-w5FaHqKzR-34" target="GpeRAgoN0T-w5FaHqKzR-42">
          <mxGeometry relative="1" as="geometry" />
        </mxCell>
        <mxCell id="GpeRAgoN0T-w5FaHqKzR-80" value="no" style="edgeLabel;html=1;align=center;verticalAlign=middle;resizable=0;points=[];labelBackgroundColor=default;spacing=2;fontSize=12;fontColor=#FF0000;" vertex="1" connectable="0" parent="GpeRAgoN0T-w5FaHqKzR-43">
          <mxGeometry x="-0.61" relative="1" as="geometry">
            <mxPoint y="7" as="offset" />
          </mxGeometry>
        </mxCell>
        <mxCell id="GpeRAgoN0T-w5FaHqKzR-34" value="is&lt;br&gt;cmd == exit&lt;br&gt;?" style="strokeWidth=1;html=1;shape=mxgraph.flowchart.decision;fillColor=#ffe6cc;strokeColor=#d79b00;labelBackgroundColor=none;spacing=2;fontSize=12;whiteSpace=wrap;" vertex="1" parent="1">
          <mxGeometry x="490" y="31.580000000000005" width="80" height="80" as="geometry" />
        </mxCell>
        <mxCell id="GpeRAgoN0T-w5FaHqKzR-49" value="" style="edgeStyle=orthogonalEdgeStyle;rounded=0;orthogonalLoop=1;jettySize=auto;html=1;labelBackgroundColor=none;spacing=2;fontSize=12;fontColor=#FF0000;strokeColor=#FF0000;" edge="1" parent="1" source="GpeRAgoN0T-w5FaHqKzR-42" target="GpeRAgoN0T-w5FaHqKzR-48">
          <mxGeometry relative="1" as="geometry" />
        </mxCell>
        <mxCell id="GpeRAgoN0T-w5FaHqKzR-81" value="no" style="edgeLabel;html=1;align=center;verticalAlign=middle;resizable=0;points=[];labelBackgroundColor=default;spacing=2;fontSize=12;fontColor=#FF0000;" vertex="1" connectable="0" parent="GpeRAgoN0T-w5FaHqKzR-49">
          <mxGeometry x="-0.3191" y="-1" relative="1" as="geometry">
            <mxPoint y="3" as="offset" />
          </mxGeometry>
        </mxCell>
        <mxCell id="GpeRAgoN0T-w5FaHqKzR-91" value="" style="edgeStyle=orthogonalEdgeStyle;rounded=0;orthogonalLoop=1;jettySize=auto;html=1;labelBackgroundColor=none;spacing=2;fontSize=12;strokeColor=#009900;entryX=0.5;entryY=0;entryDx=0;entryDy=0;" edge="1" parent="1" source="GpeRAgoN0T-w5FaHqKzR-42" target="GpeRAgoN0T-w5FaHqKzR-64">
          <mxGeometry relative="1" as="geometry">
            <Array as="points">
              <mxPoint x="280" y="186.57999999999998" />
            </Array>
            <mxPoint x="280" y="196.57999999999998" as="targetPoint" />
          </mxGeometry>
        </mxCell>
        <mxCell id="GpeRAgoN0T-w5FaHqKzR-101" value="yes" style="edgeLabel;html=1;align=center;verticalAlign=middle;resizable=0;points=[];fontColor=#009900;" vertex="1" connectable="0" parent="GpeRAgoN0T-w5FaHqKzR-91">
          <mxGeometry x="-0.3317" y="2" relative="1" as="geometry">
            <mxPoint x="78" y="-1" as="offset" />
          </mxGeometry>
        </mxCell>
        <mxCell id="GpeRAgoN0T-w5FaHqKzR-42" value="is&lt;br&gt;user input&lt;br&gt;a full path cmd&lt;br&gt;?" style="strokeWidth=1;html=1;shape=mxgraph.flowchart.decision;fillColor=#ffe6cc;strokeColor=#d79b00;labelBackgroundColor=none;spacing=2;fontSize=12;whiteSpace=wrap;" vertex="1" parent="1">
          <mxGeometry x="470" y="145.22" width="120" height="80" as="geometry" />
        </mxCell>
        <mxCell id="GpeRAgoN0T-w5FaHqKzR-94" style="edgeStyle=orthogonalEdgeStyle;rounded=0;orthogonalLoop=1;jettySize=auto;html=1;entryX=0.5;entryY=1;entryDx=0;entryDy=0;labelBackgroundColor=none;spacing=2;fontSize=12;" edge="1" parent="1" source="GpeRAgoN0T-w5FaHqKzR-44" target="GpeRAgoN0T-w5FaHqKzR-93">
          <mxGeometry relative="1" as="geometry" />
        </mxCell>
        <mxCell id="GpeRAgoN0T-w5FaHqKzR-44" value="execute the command" style="rounded=1;html=1;absoluteArcSize=1;arcSize=14;strokeWidth=1;fillColor=#dae8fc;strokeColor=#6c8ebf;labelBackgroundColor=none;spacing=2;fontSize=12;whiteSpace=wrap;" vertex="1" parent="1">
          <mxGeometry x="40" y="165.22" width="140" height="40" as="geometry" />
        </mxCell>
        <mxCell id="GpeRAgoN0T-w5FaHqKzR-52" value="" style="edgeStyle=orthogonalEdgeStyle;rounded=0;orthogonalLoop=1;jettySize=auto;html=1;labelBackgroundColor=none;spacing=2;fontSize=12;" edge="1" parent="1" source="GpeRAgoN0T-w5FaHqKzR-48" target="GpeRAgoN0T-w5FaHqKzR-51">
          <mxGeometry relative="1" as="geometry" />
        </mxCell>
        <mxCell id="GpeRAgoN0T-w5FaHqKzR-48" value="build complete executable with path" style="rounded=1;html=1;absoluteArcSize=1;arcSize=14;strokeWidth=1;fillColor=#dae8fc;strokeColor=#6c8ebf;labelBackgroundColor=none;spacing=2;fontSize=12;whiteSpace=wrap;" vertex="1" parent="1">
          <mxGeometry x="430" y="266.58" width="200" height="40" as="geometry" />
        </mxCell>
        <mxCell id="GpeRAgoN0T-w5FaHqKzR-62" value="" style="edgeStyle=orthogonalEdgeStyle;rounded=0;orthogonalLoop=1;jettySize=auto;html=1;labelBackgroundColor=none;spacing=2;fontSize=12;strokeColor=#FF0000;" edge="1" parent="1" source="GpeRAgoN0T-w5FaHqKzR-51" target="GpeRAgoN0T-w5FaHqKzR-60">
          <mxGeometry relative="1" as="geometry" />
        </mxCell>
        <mxCell id="GpeRAgoN0T-w5FaHqKzR-103" value="no" style="edgeLabel;html=1;align=center;verticalAlign=middle;resizable=0;points=[];fontColor=#FF0000;" vertex="1" connectable="0" parent="GpeRAgoN0T-w5FaHqKzR-62">
          <mxGeometry x="-0.1556" y="1" relative="1" as="geometry">
            <mxPoint x="-1" as="offset" />
          </mxGeometry>
        </mxCell>
        <mxCell id="GpeRAgoN0T-w5FaHqKzR-78" style="edgeStyle=orthogonalEdgeStyle;rounded=0;orthogonalLoop=1;jettySize=auto;html=1;labelBackgroundColor=none;spacing=2;fontSize=12;fontColor=#009900;strokeColor=#009900;entryX=0.5;entryY=1;entryDx=0;entryDy=0;" edge="1" parent="1" source="GpeRAgoN0T-w5FaHqKzR-51" target="GpeRAgoN0T-w5FaHqKzR-64">
          <mxGeometry relative="1" as="geometry">
            <Array as="points">
              <mxPoint x="280" y="386.58000000000004" />
            </Array>
            <mxPoint x="280" y="326.58" as="targetPoint" />
          </mxGeometry>
        </mxCell>
        <mxCell id="GpeRAgoN0T-w5FaHqKzR-104" value="yes" style="edgeLabel;html=1;align=center;verticalAlign=middle;resizable=0;points=[];fontColor=#009900;" vertex="1" connectable="0" parent="GpeRAgoN0T-w5FaHqKzR-78">
          <mxGeometry x="-0.1084" relative="1" as="geometry">
            <mxPoint x="107" as="offset" />
          </mxGeometry>
        </mxCell>
        <mxCell id="GpeRAgoN0T-w5FaHqKzR-51" value="is&lt;br&gt;cmd in&lt;br&gt;PATH&lt;br&gt;?" style="strokeWidth=1;html=1;shape=mxgraph.flowchart.decision;fillColor=#ffe6cc;strokeColor=#d79b00;labelBackgroundColor=none;spacing=2;fontSize=12;whiteSpace=wrap;" vertex="1" parent="1">
          <mxGeometry x="490" y="346.58000000000004" width="80" height="80" as="geometry" />
        </mxCell>
        <mxCell id="GpeRAgoN0T-w5FaHqKzR-63" style="edgeStyle=orthogonalEdgeStyle;rounded=0;orthogonalLoop=1;jettySize=auto;html=1;entryX=1;entryY=0.5;entryDx=0;entryDy=0;labelBackgroundColor=none;spacing=2;fontSize=12;exitX=1;exitY=0.5;exitDx=0;exitDy=0;" edge="1" parent="1" source="GpeRAgoN0T-w5FaHqKzR-60" target="GpeRAgoN0T-w5FaHqKzR-4">
          <mxGeometry relative="1" as="geometry">
            <Array as="points">
              <mxPoint x="970" y="387" />
              <mxPoint x="970" y="-660" />
            </Array>
          </mxGeometry>
        </mxCell>
        <mxCell id="GpeRAgoN0T-w5FaHqKzR-60" value="print error message" style="rounded=1;html=1;absoluteArcSize=1;arcSize=14;strokeWidth=1;fillColor=#dae8fc;strokeColor=#6c8ebf;labelBackgroundColor=none;spacing=2;fontSize=12;whiteSpace=wrap;" vertex="1" parent="1">
          <mxGeometry x="670" y="366.58000000000004" width="140" height="40" as="geometry" />
        </mxCell>
        <mxCell id="GpeRAgoN0T-w5FaHqKzR-79" style="edgeStyle=orthogonalEdgeStyle;rounded=0;orthogonalLoop=1;jettySize=auto;html=1;entryX=0.5;entryY=1;entryDx=0;entryDy=0;labelBackgroundColor=none;spacing=2;fontSize=12;exitX=0;exitY=0.5;exitDx=0;exitDy=0;" edge="1" parent="1" source="GpeRAgoN0T-w5FaHqKzR-64" target="GpeRAgoN0T-w5FaHqKzR-44">
          <mxGeometry relative="1" as="geometry">
            <Array as="points">
              <mxPoint x="180" y="286.58" />
              <mxPoint x="110" y="286.58" />
            </Array>
          </mxGeometry>
        </mxCell>
        <mxCell id="GpeRAgoN0T-w5FaHqKzR-64" value="new child process with fork" style="rounded=1;html=1;absoluteArcSize=1;arcSize=14;strokeWidth=1;fillColor=#dae8fc;strokeColor=#6c8ebf;labelBackgroundColor=none;spacing=2;fontSize=12;whiteSpace=wrap;" vertex="1" parent="1">
          <mxGeometry x="180" y="266.58" width="200" height="40" as="geometry" />
        </mxCell>
        <mxCell id="GpeRAgoN0T-w5FaHqKzR-72" value="" style="edgeStyle=orthogonalEdgeStyle;rounded=0;orthogonalLoop=1;jettySize=auto;html=1;labelBackgroundColor=none;spacing=2;fontSize=12;" edge="1" parent="1" source="GpeRAgoN0T-w5FaHqKzR-70">
          <mxGeometry relative="1" as="geometry">
            <mxPoint x="530" y="-830" as="targetPoint" />
          </mxGeometry>
        </mxCell>
        <mxCell id="GpeRAgoN0T-w5FaHqKzR-70" value="initialize variables" style="rounded=1;html=1;absoluteArcSize=1;arcSize=14;strokeWidth=1;fillColor=#dae8fc;strokeColor=#6c8ebf;labelBackgroundColor=none;spacing=2;fontSize=12;whiteSpace=wrap;" vertex="1" parent="1">
          <mxGeometry x="470" y="-905" width="120" height="40" as="geometry" />
        </mxCell>
        <mxCell id="GpeRAgoN0T-w5FaHqKzR-76" value="" style="edgeStyle=orthogonalEdgeStyle;rounded=0;orthogonalLoop=1;jettySize=auto;html=1;labelBackgroundColor=none;spacing=2;fontSize=12;" edge="1" parent="1" source="GpeRAgoN0T-w5FaHqKzR-74" target="GpeRAgoN0T-w5FaHqKzR-7">
          <mxGeometry relative="1" as="geometry" />
        </mxCell>
        <mxCell id="GpeRAgoN0T-w5FaHqKzR-74" value="&lt;br&gt;user input" style="html=1;strokeWidth=1;shape=manualInput;rounded=1;size=26;arcSize=11;fillColor=#e1d5e7;strokeColor=#9673a6;labelBackgroundColor=none;spacing=2;fontSize=12;whiteSpace=wrap;" vertex="1" parent="1">
          <mxGeometry x="470" y="-600" width="120" height="60" as="geometry" />
        </mxCell>
        <mxCell id="GpeRAgoN0T-w5FaHqKzR-89" value="&lt;div&gt;&lt;b&gt;command_is_path(command) :&lt;/b&gt;&lt;br&gt;&lt;/div&gt;&lt;div&gt;if&amp;nbsp; input == bin/ls &amp;gt;&amp;gt;&amp;gt; full path command&lt;/div&gt;if&amp;nbsp; input == ls &amp;gt;&amp;gt;&amp;gt; not a full path command (need PATH)" style="text;html=1;strokeColor=none;fillColor=none;align=left;verticalAlign=middle;rounded=0;labelBackgroundColor=none;spacing=2;fontSize=12;whiteSpace=wrap;" vertex="1" parent="1">
          <mxGeometry x="610" y="152.15" width="350" height="66.14" as="geometry" />
        </mxCell>
        <mxCell id="GpeRAgoN0T-w5FaHqKzR-95" style="edgeStyle=orthogonalEdgeStyle;rounded=0;orthogonalLoop=1;jettySize=auto;html=1;labelBackgroundColor=none;spacing=2;fontSize=12;entryX=0;entryY=0.25;entryDx=0;entryDy=0;" edge="1" parent="1" source="GpeRAgoN0T-w5FaHqKzR-93" target="GpeRAgoN0T-w5FaHqKzR-4">
          <mxGeometry relative="1" as="geometry">
            <mxPoint x="430" y="-610" as="targetPoint" />
            <Array as="points">
              <mxPoint x="110" y="-670" />
            </Array>
          </mxGeometry>
        </mxCell>
        <mxCell id="GpeRAgoN0T-w5FaHqKzR-93" value="free memory" style="rounded=1;html=1;absoluteArcSize=1;arcSize=14;strokeWidth=1;fillColor=#dae8fc;strokeColor=#6c8ebf;labelBackgroundColor=none;spacing=2;fontSize=12;whiteSpace=wrap;" vertex="1" parent="1">
          <mxGeometry x="40" y="46.58" width="140" height="40" as="geometry" />
        </mxCell>
        <mxCell id="GpeRAgoN0T-w5FaHqKzR-106" value="&lt;b&gt;check_path&lt;/b&gt;" style="text;html=1;strokeColor=none;fillColor=none;align=left;verticalAlign=middle;whiteSpace=wrap;rounded=0;" vertex="1" parent="1">
          <mxGeometry x="660" y="268.29" width="90" height="30" as="geometry" />
        </mxCell>
        <mxCell id="3Kfe-NXEjJJ032uGnzEN-1" value="" style="endArrow=classic;html=1;rounded=0;entryX=0.5;entryY=1;entryDx=0;entryDy=0;entryPerimeter=0;exitX=0.5;exitY=0;exitDx=0;exitDy=0;" edge="1" parent="1" source="GpeRAgoN0T-w5FaHqKzR-11">
          <mxGeometry width="50" height="50" relative="1" as="geometry">
            <mxPoint x="750" y="-350" as="sourcePoint" />
            <mxPoint x="880" y="-510" as="targetPoint" />
          </mxGeometry>
        </mxCell>
        <mxCell id="3Kfe-NXEjJJ032uGnzEN-4" value="&lt;div align=&quot;left&quot;&gt;&lt;b&gt;non interactive mode :&lt;/b&gt;&lt;br&gt;&lt;/div&gt;&lt;div align=&quot;left&quot;&gt;enable scripts and commands&lt;br&gt;&lt;/div&gt;from the outside of the shell" style="text;html=1;strokeColor=none;fillColor=none;align=left;verticalAlign=middle;rounded=0;labelBackgroundColor=none;spacing=2;fontSize=12;whiteSpace=wrap;" vertex="1" parent="1">
          <mxGeometry x="710" y="-775" width="230" height="30" as="geometry" />
        </mxCell>
        <mxCell id="L-O8Y2RSBPuieIQ2Lcut-1" value="START" style="ellipse;whiteSpace=wrap;html=1;fillColor=#d5e8d4;strokeColor=#82b366;" vertex="1" parent="1">
          <mxGeometry x="485" y="-995" width="90" height="50" as="geometry" />
        </mxCell>
        <mxCell id="L-O8Y2RSBPuieIQ2Lcut-5" style="edgeStyle=orthogonalEdgeStyle;rounded=0;orthogonalLoop=1;jettySize=auto;html=1;labelBackgroundColor=none;spacing=2;fontSize=12;strokeColor=#009900;exitX=0.5;exitY=1;exitDx=0;exitDy=0;exitPerimeter=0;" edge="1" parent="1" source="GpeRAgoN0T-w5FaHqKzR-3">
          <mxGeometry relative="1" as="geometry">
            <Array as="points">
              <mxPoint x="530" y="-690" />
            </Array>
            <mxPoint x="529.86" y="-710" as="sourcePoint" />
            <mxPoint x="529.86" y="-680" as="targetPoint" />
          </mxGeometry>
        </mxCell>
        <mxCell id="L-O8Y2RSBPuieIQ2Lcut-6" value="yes" style="edgeLabel;html=1;align=center;verticalAlign=middle;resizable=0;points=[];labelBackgroundColor=default;spacing=2;fontSize=12;fontColor=#009900;" connectable="0" vertex="1" parent="L-O8Y2RSBPuieIQ2Lcut-5">
          <mxGeometry x="-0.653" y="1" relative="1" as="geometry">
            <mxPoint x="-1" y="3" as="offset" />
          </mxGeometry>
        </mxCell>
        <mxCell id="L-O8Y2RSBPuieIQ2Lcut-8" value="" style="edgeStyle=orthogonalEdgeStyle;rounded=0;orthogonalLoop=1;jettySize=auto;html=1;labelBackgroundColor=none;spacing=2;fontSize=12;strokeColor=#FF0000;exitX=1;exitY=0.5;exitDx=0;exitDy=0;exitPerimeter=0;" edge="1" parent="1" source="GpeRAgoN0T-w5FaHqKzR-3">
          <mxGeometry relative="1" as="geometry">
            <mxPoint x="580" y="-760.2" as="sourcePoint" />
            <mxPoint x="590" y="-480" as="targetPoint" />
            <Array as="points">
              <mxPoint x="681" y="-780" />
              <mxPoint x="681" y="-480" />
            </Array>
          </mxGeometry>
        </mxCell>
        <mxCell id="L-O8Y2RSBPuieIQ2Lcut-9" value="no" style="edgeLabel;html=1;align=center;verticalAlign=middle;resizable=0;points=[];fontColor=#FF0000;" connectable="0" vertex="1" parent="L-O8Y2RSBPuieIQ2Lcut-8">
          <mxGeometry x="-0.1556" y="1" relative="1" as="geometry">
            <mxPoint x="-82" y="-106" as="offset" />
          </mxGeometry>
        </mxCell>
        <mxCell id="L-O8Y2RSBPuieIQ2Lcut-13" value="&lt;div align=&quot;left&quot;&gt;&lt;b&gt;Interactive mode :&lt;/b&gt;&lt;/div&gt;&lt;div align=&quot;left&quot;&gt;Using Terminal to type commands to be parsed and executed by the shell&lt;br&gt;&lt;/div&gt;" style="text;html=1;strokeColor=none;fillColor=none;align=left;verticalAlign=middle;rounded=0;labelBackgroundColor=none;spacing=2;fontSize=12;whiteSpace=wrap;" vertex="1" parent="1">
          <mxGeometry x="265" y="-735" width="180" height="30" as="geometry" />
        </mxCell>
        <mxCell id="L-O8Y2RSBPuieIQ2Lcut-15" value="" style="shape=curlyBracket;whiteSpace=wrap;html=1;rounded=1;flipH=1;labelPosition=right;verticalLabelPosition=middle;align=left;verticalAlign=middle;dashed=1;" vertex="1" parent="1">
          <mxGeometry x="425" y="-750" width="20" height="60" as="geometry" />
        </mxCell>
        <mxCell id="L-O8Y2RSBPuieIQ2Lcut-16" value="" style="endArrow=classic;html=1;rounded=0;dashed=1;" edge="1" parent="1">
          <mxGeometry width="50" height="50" relative="1" as="geometry">
            <mxPoint x="445" y="-720.29" as="sourcePoint" />
            <mxPoint x="515" y="-720.29" as="targetPoint" />
          </mxGeometry>
        </mxCell>
        <mxCell id="L-O8Y2RSBPuieIQ2Lcut-17" value="" style="shape=curlyBracket;whiteSpace=wrap;html=1;rounded=1;labelPosition=left;verticalLabelPosition=middle;align=right;verticalAlign=middle;dashed=1;" vertex="1" parent="1">
          <mxGeometry x="690" y="-790" width="20" height="60" as="geometry" />
        </mxCell>
        <mxCell id="L-O8Y2RSBPuieIQ2Lcut-20" value="" style="shape=curlyBracket;whiteSpace=wrap;html=1;rounded=1;labelPosition=left;verticalLabelPosition=middle;align=right;verticalAlign=middle;dashed=1;" vertex="1" parent="1">
          <mxGeometry x="610" y="-183.41999999999996" width="20" height="60" as="geometry" />
        </mxCell>
        <mxCell id="L-O8Y2RSBPuieIQ2Lcut-21" value="&lt;div&gt;&lt;b&gt;check_builtin(command) :&lt;/b&gt;&lt;br&gt;&lt;/div&gt;&lt;div&gt;check if the command is exit, env&lt;/div&gt;&lt;div&gt;or printenv&lt;br&gt;&lt;/div&gt;" style="text;html=1;strokeColor=none;fillColor=none;align=left;verticalAlign=middle;rounded=0;labelBackgroundColor=none;spacing=2;fontSize=12;whiteSpace=wrap;" vertex="1" parent="1">
          <mxGeometry x="625" y="-168.42" width="185" height="30" as="geometry" />
        </mxCell>
        <mxCell id="L-O8Y2RSBPuieIQ2Lcut-22" value="" style="shape=curlyBracket;whiteSpace=wrap;html=1;rounded=1;labelPosition=left;verticalLabelPosition=middle;align=right;verticalAlign=middle;dashed=1;" vertex="1" parent="1">
          <mxGeometry x="595" y="155.22000000000003" width="20" height="60" as="geometry" />
        </mxCell>
        <mxCell id="L-O8Y2RSBPuieIQ2Lcut-23" value="" style="shape=curlyBracket;whiteSpace=wrap;html=1;rounded=1;labelPosition=left;verticalLabelPosition=middle;align=right;verticalAlign=middle;dashed=1;" vertex="1" parent="1">
          <mxGeometry x="640" y="268.29" width="20" height="36.58" as="geometry" />
        </mxCell>
        <mxCell id="L-O8Y2RSBPuieIQ2Lcut-25" value="parse input" style="rounded=1;html=1;absoluteArcSize=1;arcSize=14;strokeWidth=1;fillColor=#dae8fc;strokeColor=#6c8ebf;labelBackgroundColor=none;spacing=2;fontSize=12;whiteSpace=wrap;" vertex="1" parent="1">
          <mxGeometry x="475" y="-290" width="120" height="40" as="geometry" />
        </mxCell>
        <mxCell id="L-O8Y2RSBPuieIQ2Lcut-26" value="" style="edgeStyle=orthogonalEdgeStyle;rounded=0;orthogonalLoop=1;jettySize=auto;html=1;labelBackgroundColor=none;spacing=2;fontSize=12;exitX=0.475;exitY=1;exitDx=0;exitDy=0;exitPerimeter=0;entryX=0.505;entryY=0.051;entryDx=0;entryDy=0;entryPerimeter=0;" edge="1" parent="1" source="L-O8Y2RSBPuieIQ2Lcut-25" target="GpeRAgoN0T-w5FaHqKzR-21">
          <mxGeometry relative="1" as="geometry">
            <mxPoint x="529.74" y="-270" as="sourcePoint" />
            <mxPoint x="529.74" y="-230" as="targetPoint" />
            <Array as="points">
              <mxPoint x="530" y="-250" />
              <mxPoint x="530" y="-212" />
              <mxPoint x="531" y="-212" />
            </Array>
          </mxGeometry>
        </mxCell>
        <mxCell id="L-O8Y2RSBPuieIQ2Lcut-28" value="" style="shape=curlyBracket;whiteSpace=wrap;html=1;rounded=1;labelPosition=left;verticalLabelPosition=middle;align=right;verticalAlign=middle;dashed=1;" vertex="1" parent="1">
          <mxGeometry x="595" y="-305" width="20" height="70" as="geometry" />
        </mxCell>
        <mxCell id="L-O8Y2RSBPuieIQ2Lcut-29" value="&lt;div&gt;&lt;b&gt;tokenizer(input)&lt;/b&gt; :&lt;br&gt;&lt;/div&gt;&lt;div&gt;Parses an input string and transforms it into an array of tokens&lt;br&gt;&lt;/div&gt;" style="text;html=1;strokeColor=none;fillColor=none;align=left;verticalAlign=middle;rounded=0;labelBackgroundColor=none;spacing=2;fontSize=12;whiteSpace=wrap;" vertex="1" parent="1">
          <mxGeometry x="610" y="-285" width="185" height="30" as="geometry" />
        </mxCell>
        <mxCell id="L-O8Y2RSBPuieIQ2Lcut-30" value="&lt;div align=&quot;left&quot;&gt;&lt;b&gt;getline(input)&lt;br&gt;&lt;/b&gt;&lt;/div&gt;" style="text;html=1;strokeColor=none;fillColor=none;align=left;verticalAlign=middle;rounded=0;labelBackgroundColor=none;spacing=2;fontSize=12;whiteSpace=wrap;" vertex="1" parent="1">
          <mxGeometry x="375" y="-500" width="80" height="30" as="geometry" />
        </mxCell>
        <mxCell id="L-O8Y2RSBPuieIQ2Lcut-32" value="" style="shape=curlyBracket;whiteSpace=wrap;html=1;rounded=1;flipH=1;labelPosition=right;verticalLabelPosition=middle;align=left;verticalAlign=middle;dashed=1;" vertex="1" parent="1">
          <mxGeometry x="445" y="-505" width="20" height="40" as="geometry" />
        </mxCell>
        <mxCell id="L-O8Y2RSBPuieIQ2Lcut-35" value="" style="shape=curlyBracket;whiteSpace=wrap;html=1;rounded=1;labelPosition=left;verticalLabelPosition=middle;align=right;verticalAlign=middle;dashed=1;" vertex="1" parent="1">
          <mxGeometry x="190" y="50.79" width="20" height="31.58" as="geometry" />
        </mxCell>
        <mxCell id="L-O8Y2RSBPuieIQ2Lcut-36" value="&lt;b&gt;clean()&lt;/b&gt;" style="text;html=1;strokeColor=none;fillColor=none;align=left;verticalAlign=middle;rounded=0;labelBackgroundColor=none;spacing=2;fontSize=12;whiteSpace=wrap;" vertex="1" parent="1">
          <mxGeometry x="210" y="50.79" width="80" height="30" as="geometry" />
        </mxCell>
        <mxCell id="L-O8Y2RSBPuieIQ2Lcut-42" value="END" style="ellipse;whiteSpace=wrap;html=1;fillColor=#f8cecc;strokeColor=#b85450;" vertex="1" parent="1">
          <mxGeometry x="835" y="-570" width="90" height="50" as="geometry" />
        </mxCell>
      </root>
    </mxGraphModel>
  </diagram>
</mxfile>
